<?xml version="1.0" encoding="UTF-8"?><svg id="merge" xmlns="http://www.w3.org/2000/svg" viewBox="0 0 2648.2225913617294 2345.8843040466309"><path d="m1954.5559246950434,501.4421520233154H608.5559246950434c-81.7381591796875,0-148,66.2618408203125-148,148v821.3333129882812c0,81.7381591796875,66.2618408203125,148,148,148h241.697509765625l128.0294799804688-147h-368.7269897460938v-823.3333129882812h1344v823.3333129882812h-370.060302734375l128.0294189453125,147h243.0308837890625c81.7381591796875,0,148-66.2618408203125,148-148v-821.3333129882812c0-81.7381591796875-66.2618408203125-148-148-148Z"/><path d="m1305.0200970583246,1276.4818859100342c-12.7545166015625-14.6444091796875-35.5072021484375-14.6444091796875-48.2616577148438,0l-449.0276489257812,515.5614624023438c-18.033935546875,20.7060546875-3.3275756835938,53.0167236328125,24.1307983398438,53.0167236328125h898.0552978515625c27.4583740234375,0,42.164794921875-32.3106689453125,24.130859375-53.0167236328125l-449.0276489257812-515.5614624023438Z"/></svg>