<?xml version="1.0" encoding="UTF-8"?><svg id="merge" xmlns="http://www.w3.org/2000/svg" viewBox="0 0 1802 1792"><path d="m1540.14,488.22v639.4c0,63.63-51.58,115.22-115.22,115.22h-189.2l-99.67-114.44h288.09V487.44H377.85v640.96h287.05l-99.67,114.44h-188.16c-63.63,0-115.22-51.58-115.22-115.22V488.22c0-63.63,51.58-115.22,115.22-115.22h1047.85c63.63,0,115.22,51.58,115.22,115.22Zm-620.88,488.15c-9.93-11.4-27.64-11.4-37.57,0l-349.57,401.36c-14.04,16.12-2.59,41.27,18.79,41.27h699.13c21.38,0,32.83-25.15,18.79-41.27l-349.57-401.36Z"/></svg>