<?xml version="1.0" encoding="UTF-8"?><svg id="Layer_7" xmlns="http://www.w3.org/2000/svg" viewBox="0 0 1802 1792"><path d="m1307.72,605.31H494.28v581.37h813.44v-581.37Zm232.24,697.53V487.99c0-21.01-5.15-40.28-15.46-57.79-10.31-17.51-24.41-31.42-42.31-41.73-17.89-10.31-37.35-15.47-58.35-15.47H378.16c-21.01,0-40.36,5.16-58.06,15.47-17.7,10.31-31.8,24.22-42.31,41.73-10.5,17.51-15.76,36.77-15.76,57.79v814.85c0,21.01,5.25,40.37,15.76,58.08,10.5,17.71,24.61,31.81,42.31,42.32,17.7,10.51,37.05,15.76,58.06,15.76h1045.68c21.01,0,40.36-5.25,58.06-15.76,17.7-10.51,31.8-24.61,42.31-42.32,10.5-17.71,15.76-37.07,15.76-58.08Zm-116.12,1.17H378.16V487.41h1045.68v816.6Z"/></svg>