<?xml version="1.0" encoding="UTF-8"?><svg id="Layer_6" xmlns="http://www.w3.org/2000/svg" viewBox="0 0 1802 1792"><path d="m1308.04,837.63h-465.41v348.67h465.41v-348.67Zm231.93,465.41V488.18c0-21.27-5.19-40.6-15.57-57.98-10.38-17.38-24.52-31.26-42.42-41.64-17.9-10.38-37.23-15.57-57.98-15.57H378c-20.75,0-40.08,5.19-57.98,15.57-17.9,10.38-32.04,24.26-42.42,41.64s-15.57,36.71-15.57,57.98v814.85c0,20.75,5.19,40.08,15.57,57.98s24.52,32.04,42.42,42.42,37.23,15.57,57.98,15.57h1046c20.75,0,40.08-5.19,57.98-15.57,17.9-10.38,32.04-24.52,42.42-42.42,10.38-17.9,15.57-37.23,15.57-57.98Zm-115.96.78H378V487.41h1046v816.41Z"/></svg>