<?xml version="1.0" standalone="no"?>
<!DOCTYPE svg PUBLIC "-//W3C//DTD SVG 20010904//EN"
 "http://www.w3.org/TR/2001/REC-SVG-20010904/DTD/svg10.dtd">
<svg version="1.0" xmlns="http://www.w3.org/2000/svg"
 width="324.000000pt" height="324.000000pt" viewBox="0 0 324.000000 324.000000"
 preserveAspectRatio="xMidYMid meet">
<metadata>
Created by potrace 1.14, written by Peter Selinger 2001-2017
</metadata>
<g transform="translate(0.000000,324.000000) scale(0.100000,-0.100000)"
fill="#000000" stroke="none">
<path d="M1550 2710 c-25 -5 -71 -9 -102 -9 -32 -1 -58 -5 -58 -9 0 -5 -15 -9
-32 -9 -61 0 -173 -25 -226 -49 -29 -13 -60 -24 -69 -24 -29 0 -288 -127 -334
-164 -15 -11 -55 -41 -89 -65 -85 -61 -320 -315 -320 -347 0 -3 -13 -25 -30
-49 -34 -50 -38 -72 -13 -78 15 -4 14 -5 -3 -6 -42 -2 -44 -7 -146 -362 -7
-26 -7 -42 1 -57 14 -26 14 -35 1 -27 -6 4 -9 -34 -6 -107 3 -97 8 -126 36
-203 18 -49 41 -102 52 -117 10 -14 18 -35 18 -45 0 -40 194 -193 244 -193 6
0 39 -14 73 -30 37 -18 92 -35 135 -41 40 -5 107 -15 148 -21 114 -16 174 -18
897 -23 387 -2 675 0 678 5 3 5 21 6 39 3 79 -13 335 41 367 77 8 10 29 25 46
33 45 24 139 132 180 207 38 70 64 147 68 195 1 17 5 38 10 48 10 25 -1 485
-13 500 -5 6 -15 37 -22 67 -7 30 -23 75 -36 100 -13 25 -24 51 -24 59 0 7
-19 50 -42 93 -65 121 -335 388 -392 388 -9 0 -31 14 -49 30 -19 17 -41 30
-49 30 -8 0 -34 14 -56 30 -23 17 -46 30 -51 30 -6 0 -26 9 -45 21 -52 31
-162 68 -184 63 -10 -3 -35 4 -54 16 -20 11 -60 26 -90 32 -65 14 -396 19
-458 8z m145 -80 c6 5 20 8 31 6 10 -2 48 -7 84 -11 36 -4 79 -8 95 -10 17 -2
55 -11 85 -20 30 -10 80 -21 110 -25 30 -4 84 -20 120 -35 36 -15 93 -37 126
-50 84 -30 216 -106 221 -127 3 -9 18 -22 33 -28 29 -12 190 -174 218 -220 9
-14 33 -44 54 -68 21 -23 43 -54 50 -70 6 -15 26 -59 44 -97 32 -66 34 -80 45
-240 15 -226 6 -388 -25 -480 -37 -105 -92 -199 -142 -244 -49 -43 -158 -101
-190 -101 -11 0 -25 -5 -32 -12 -8 -8 -117 -14 -354 -20 -612 -16 -580 -14
-591 -34 -9 -16 -10 -16 -23 1 -11 15 -33 18 -166 21 -84 2 -160 4 -168 5 -8
0 -89 5 -180 9 -91 5 -217 12 -280 16 -63 3 -137 7 -165 8 -27 1 -75 12 -106
24 -31 11 -66 18 -78 15 -14 -4 -21 -1 -21 9 0 8 -23 29 -50 47 -28 18 -58 45
-68 59 -9 15 -29 40 -44 55 -16 16 -28 34 -28 40 0 7 -7 26 -16 42 -9 17 -20
48 -25 70 -4 22 -12 60 -18 85 -5 25 -12 92 -15 149 -4 57 -9 107 -11 112 -3
4 -1 10 5 14 5 3 10 22 10 42 0 20 9 66 20 102 11 36 29 98 41 138 24 82 112
223 184 294 25 24 45 49 45 55 0 6 25 37 55 69 30 32 55 62 55 66 0 3 13 12
29 19 16 6 37 20 46 30 10 11 31 22 49 26 17 3 43 21 59 40 17 21 38 34 52 34
12 0 28 7 36 16 23 28 166 81 241 90 23 3 49 9 57 13 9 5 47 14 86 20 38 7 74
16 80 21 5 4 39 10 75 13 80 6 140 14 146 20 3 2 25 0 51 -4 28 -6 50 -5 58 1z"/>
<path d="M1210 2378 c-34 -36 -80 -110 -87 -138 -3 -14 -24 -63 -46 -110 -57
-122 -64 -220 -14 -220 12 0 27 4 33 8 16 10 64 101 64 121 0 8 16 51 37 96
20 44 45 99 55 122 11 24 24 45 29 49 13 8 11 68 -3 82 -18 18 -45 14 -68 -10z"/>
<path d="M1563 2375 c-21 -15 -113 -177 -113 -199 0 -7 -11 -35 -25 -62 -30
-59 -45 -175 -25 -199 30 -36 70 -8 94 66 31 93 52 145 69 169 9 13 17 31 17
40 0 8 14 44 30 78 33 71 38 107 14 116 -24 9 -38 7 -61 -9z"/>
</g>
</svg>
