<?xml version="1.0" encoding="UTF-8"?><svg id="my_account_fill_1_combined" xmlns="http://www.w3.org/2000/svg" viewBox="0 0 64 64"><path d="m32.55,54.5H0v-2c0-10.53,6.65-19.51,15.98-22.97-4.49-2.83-7.48-7.82-7.48-13.53C8.5,7.16,15.66,0,24.5,0s16,7.16,16,16c0,5.7-2.99,10.69-7.48,13.53,2.96,1.1,5.64,2.75,7.94,4.83-5.38,3.11-9.02,8.92-9.02,15.58,0,1.58.22,3.1.61,4.56Zm27.09-2.71l4.37,1.81-1.53,3.7-4.36-1.81c-.7,1.03-1.58,1.92-2.62,2.62l1.81,4.37-3.7,1.53-1.81-4.37c-.61.12-1.23.18-1.85.18s-1.24-.06-1.85-.18l-1.81,4.37-3.7-1.53,1.81-4.36c-1.03-.7-1.92-1.58-2.62-2.62l-4.37,1.81-1.53-3.7,4.37-1.81c-.24-1.23-.24-2.48,0-3.7l-4.37-1.81,1.53-3.7,4.36,1.81c.7-1.03,1.58-1.92,2.62-2.62l-1.81-4.37,3.7-1.53,1.81,4.37c1.22-.24,2.48-.24,3.7,0l1.81-4.37,3.7,1.53-1.81,4.36c1.03.7,1.92,1.58,2.62,2.62l4.37-1.81,1.53,3.7-4.37,1.81c.24,1.23.24,2.48,0,3.7Zm-4.27-4.1c-.6-1.45-1.73-2.58-3.18-3.18-.72-.3-1.49-.45-2.25-.45s-1.52.15-2.25.45c-1.45.6-2.58,1.73-3.18,3.18-.6,1.45-.6,3.04,0,4.49.6,1.45,1.73,2.58,3.18,3.18,1.45.6,3.04.6,4.49,0,1.45-.6,2.58-1.73,3.18-3.18.6-1.45.6-3.04,0-4.49Z"/></svg>