<?xml version="1.0" encoding="UTF-8"?><svg id="my_account_1_combined" xmlns="http://www.w3.org/2000/svg" viewBox="0 0 64 64"><path d="m32.99,29.54c4.5-2.83,7.51-7.84,7.51-13.54C40.5,7.18,33.32,0,24.5,0S8.5,7.18,8.5,16c0,5.69,3,10.69,7.49,13.53C6.66,32.99,0,41.98,0,52.5h4c0-11.3,9.2-20.5,20.5-20.5,5.01,0,9.6,1.81,13.16,4.8,1-.93,2.1-1.75,3.29-2.44-2.3-2.09-5-3.73-7.96-4.82Zm-20.49-13.54c0-6.62,5.38-12,12-12s12,5.38,12,12-5.38,12-12,12-12-5.38-12-12Zm47.13,32.09l4.37-1.81-1.53-3.7-4.37,1.81c-.7-1.03-1.58-1.92-2.62-2.62l1.81-4.36-3.7-1.53-1.81,4.37c-1.22-.24-2.48-.24-3.7,0l-1.81-4.37-3.7,1.53,1.81,4.37c-1.03.7-1.92,1.58-2.62,2.62l-4.36-1.81-1.53,3.7,4.37,1.81c-.24,1.23-.24,2.48,0,3.7l-4.37,1.81,1.53,3.7,4.37-1.81c.7,1.03,1.58,1.92,2.62,2.62l-1.81,4.36,3.7,1.53,1.81-4.37c.61.12,1.23.18,1.85.18s1.24-.06,1.85-.18l1.81,4.37,3.7-1.53-1.81-4.37c1.03-.7,1.92-1.58,2.62-2.62l4.36,1.81,1.53-3.7-4.37-1.81c.24-1.23.24-2.48,0-3.7Zm-4.27,4.1c-.6,1.45-1.73,2.58-3.18,3.18-1.45.6-3.04.6-4.49,0-1.45-.6-2.58-1.73-3.18-3.18-.6-1.45-.6-3.04,0-4.49.6-1.45,1.73-2.58,3.18-3.18.72-.3,1.49-.45,2.25-.45s1.52.15,2.25.45c1.45.6,2.58,1.73,3.18,3.18.6,1.45.6,3.04,0,4.49Z"/></svg>